<svg xmlns="http://www.w3.org/2000/svg" fill="#000000" class="bi bi-trash3" viewBox="0 0 16 16" id="Trash3--Streamline-Bootstrap" height="16" width="16">
  <desc>
    Trash3 Streamline Icon: https://streamlinehq.com
  </desc>
  <path d="M6.5 1h3a0.5 0.5 0 0 1 0.5 0.5v1H6v-1a0.5 0.5 0 0 1 0.5 -0.5M11 2.5v-1A1.5 1.5 0 0 0 9.5 0h-3A1.5 1.5 0 0 0 5 1.5v1H1.5a0.5 0.5 0 0 0 0 1h0.538l0.853 10.66A2 2 0 0 0 4.885 16h6.23a2 2 0 0 0 1.994 -1.84l0.853 -10.66h0.538a0.5 0.5 0 0 0 0 -1zm1.958 1 -0.846 10.58a1 1 0 0 1 -0.997 0.92h-6.23a1 1 0 0 1 -0.997 -0.92L3.042 3.5zm-7.487 1a0.5 0.5 0 0 1 0.528 0.47l0.5 8.5a0.5 0.5 0 0 1 -0.998 0.06L5 5.03a0.5 0.5 0 0 1 0.47 -0.53Zm5.058 0a0.5 0.5 0 0 1 0.47 0.53l-0.5 8.5a0.5 0.5 0 1 1 -0.998 -0.06l0.5 -8.5a0.5 0.5 0 0 1 0.528 -0.47M8 4.5a0.5 0.5 0 0 1 0.5 0.5v8.5a0.5 0.5 0 0 1 -1 0V5a0.5 0.5 0 0 1 0.5 -0.5" stroke-width="1"></path>
</svg>